<svg xmlns="http://www.w3.org/2000/svg" width="256" height="256" viewBox="0 0 100 100"><rect width="100" height="100" rx="20" fill="#e4a741"></rect><path fill="#fff" d="M50.67 50.00L50.67 50.00Q50.67 53.90 49.58 56.87Q48.47 59.85 46.52 61.82Q44.58 63.80 41.92 64.82Q39.27 65.85 36.17 65.85L36.17 65.85Q33.08 65.85 30.42 64.82Q27.77 63.80 25.82 61.82Q23.88 59.85 22.77 56.87Q21.67 53.90 21.67 50.00L21.67 50.00Q21.67 46.10 22.80 43.15Q23.92 40.20 25.88 38.20Q27.82 36.20 30.47 35.17Q33.13 34.15 36.17 34.15L36.17 34.15Q39.22 34.15 41.88 35.17Q44.52 36.20 46.47 38.20Q48.42 40.20 49.55 43.15Q50.67 46.10 50.67 50.00ZM46.52 50.00L46.52 50.00Q46.52 44.00 43.70 40.80Q40.88 37.60 36.17 37.60L36.17 37.60Q33.83 37.60 31.92 38.42Q30.02 39.25 28.67 40.82Q27.32 42.40 26.60 44.70Q25.88 47.00 25.88 50.00L25.88 50.00Q25.88 56.00 28.67 59.20Q31.47 62.40 36.17 62.40L36.17 62.40Q40.92 62.40 43.72 59.20Q46.52 56.00 46.52 50.00ZM76.78 38.25L68.53 38.25L68.53 65.10Q68.28 65.20 67.75 65.32Q67.22 65.45 66.67 65.45L66.67 65.45Q64.47 65.45 64.47 63.60L64.47 63.60L64.47 38.25L55.13 38.25Q54.97 38.00 54.82 37.57Q54.67 37.15 54.67 36.60L54.67 36.60Q54.67 35.75 55.07 35.27Q55.47 34.80 56.22 34.80L56.22 34.80L77.88 34.80Q78.03 35.05 78.17 35.47Q78.33 35.90 78.33 36.40L78.33 36.40Q78.33 37.25 77.92 37.75Q77.53 38.25 76.78 38.25L76.78 38.25Z"></path></svg>